<svg width="605" height="70" viewBox="0 0 605 70" fill="none" xmlns="http://www.w3.org/2000/svg">
<path d="M5 2.94736L605 2.94736V67.0526H5V2.94736Z" fill="#FF7766"/>
<path d="M0 0H524L506.916 70H0V0Z" fill="url(#paint0_linear_155_205801)"/>
<path d="M568.589 29.5539C568.012 29.1987 567.262 29.1987 566.628 29.5539L562.129 32.2769L559.072 34.0528L554.574 36.7759C553.997 37.131 553.247 37.131 552.613 36.7759L549.037 34.6448C548.46 34.2897 548.057 33.6385 548.057 32.9281V28.7251C548.057 28.0148 548.403 27.3636 549.037 27.0085L552.555 24.9366C553.132 24.5814 553.882 24.5814 554.516 24.9366L558.034 27.0085C558.611 27.3636 559.015 28.0148 559.015 28.7251V31.4482L562.071 29.6131V26.8901C562.071 26.1797 561.726 25.5285 561.091 25.1734L554.574 21.2664C553.997 20.9112 553.247 20.9112 552.613 21.2664L545.98 25.1734C545.346 25.5285 545 26.1797 545 26.8901V34.7632C545 35.4735 545.346 36.1247 545.98 36.4799L552.613 40.3868C553.19 40.7421 553.94 40.7421 554.574 40.3868L559.072 37.723L562.129 35.8879L566.628 33.2241C567.205 32.8689 567.954 32.8689 568.589 33.2241L572.107 35.296C572.684 35.6512 573.087 36.3023 573.087 37.0127V41.2156C573.087 41.926 572.741 42.5771 572.107 42.9323L568.589 45.0634C568.012 45.4186 567.262 45.4186 566.628 45.0634L563.11 42.9915C562.533 42.6364 562.129 41.9852 562.129 41.2748V38.5518L559.072 40.3868V43.1099C559.072 43.8202 559.419 44.4714 560.053 44.8266L566.685 48.7336C567.262 49.0888 568.012 49.0888 568.646 48.7336L575.279 44.8266C575.856 44.4714 576.259 43.8202 576.259 43.1099V35.2368C576.259 34.5264 575.913 33.8753 575.279 33.5201L568.589 29.5539Z" fill="white"/>
<defs>
<linearGradient id="paint0_linear_155_205801" x1="262" y1="0" x2="262" y2="70" gradientUnits="userSpaceOnUse">
<stop stop-color="#EA653B"/>
<stop offset="1" stop-color="#E63838"/>
</linearGradient>
</defs>
</svg>
