<svg width="107" height="99" viewBox="0 0 107 99" fill="none" xmlns="http://www.w3.org/2000/svg">
<rect x="64" y="36" width="41" height="43" fill="#C37100"/>
<rect x="2" y="36" width="60" height="43" fill="#C37100"/>
<rect width="59" height="1" transform="matrix(1 0 0 -1 2 36)" fill="#C37100"/>
<rect width="10" height="13" transform="matrix(1 0 0 -1 2 35)" fill="#C37100"/>
<rect width="14" height="9" transform="matrix(1 0 0 -1 12 35)" fill="#C37100"/>
<rect x="34" y="35" width="8" height="7" transform="rotate(-180 34 35)" fill="#C37100"/>
<rect width="7" height="5" transform="matrix(1 0 0 -1 34 35)" fill="#C37100"/>
<rect width="38" height="2" transform="matrix(1 0 0 -1 67 36)" fill="#C37100"/>
<rect x="70" y="33" width="35" height="1" fill="#C37100"/>
<rect width="30" height="2" transform="matrix(1 0 0 -1 75 33)" fill="#C37100"/>
<rect x="80" y="29" width="25" height="2" fill="#C37100"/>
<rect width="20" height="2" transform="matrix(1 0 0 -1 85 29)" fill="#C37100"/>
<rect x="90" y="25" width="15" height="2" fill="#C37100"/>
<rect width="9" height="2" transform="matrix(1 0 0 -1 96 25)" fill="#C37100"/>
<rect x="101" y="21" width="4" height="2" fill="#C37100"/>
<rect width="2" height="1" transform="matrix(1 0 0 -1 103 21)" fill="#C37100"/>
<rect width="3" height="1" transform="matrix(1 0 0 -1 98 23)" fill="#C37100"/>
<rect width="3" height="1" transform="matrix(1 0 0 -1 93 25)" fill="#C37100"/>
<rect width="2" height="1" transform="matrix(1 0 0 -1 88 27)" fill="#C37100"/>
<rect width="2" height="1" transform="matrix(1 0 0 -1 83 29)" fill="#C37100"/>
<rect width="2" height="1" transform="matrix(1 0 0 -1 78 31)" fill="#C37100"/>
<rect width="3" height="1" transform="matrix(1 0 0 -1 72 33)" fill="#C37100"/>
<rect width="2" height="1" transform="matrix(1 0 0 -1 65 36)" fill="#C37100"/>
<rect x="48" y="35" width="7" height="3" transform="rotate(-180 48 35)" fill="#C37100"/>
<rect width="8" height="1" transform="matrix(1 0 0 -1 48 35)" fill="#C37100"/>
<rect width="4" height="1" transform="matrix(1 0 0 -1 48 34)" fill="#C37100"/>
<rect width="4" height="1" transform="matrix(1 0 0 -1 41 32)" fill="#C37100"/>
<rect width="4" height="1" transform="matrix(1 0 0 -1 26 28)" fill="#C37100"/>
<rect width="4" height="1" transform="matrix(1 0 0 -1 19 26)" fill="#C37100"/>
<rect width="7" height="2" transform="matrix(-1 0 0 1 19 24)" fill="#C37100"/>
<rect width="3" height="1" transform="matrix(-1 0 0 1 15 23)" fill="#C37100"/>
<rect width="3" height="1" transform="matrix(-1 0 0 1 37 29)" fill="#C37100"/>
<rect width="4" height="1" transform="matrix(-1 0 0 1 8 21)" fill="#C37100"/>
<rect width="59" height="1" transform="matrix(-1 0 0 1 62 79)" fill="#C37100"/>
<rect x="62" y="82" width="52" height="2" transform="rotate(-180 62 82)" fill="#C37100"/>
<rect width="45" height="2" transform="matrix(-1 0 0 1 62 82)" fill="#C37100"/>
<rect x="62" y="86" width="38" height="2" transform="rotate(-180 62 86)" fill="#C37100"/>
<rect width="31" height="2" transform="matrix(-1 0 0 1 62 86)" fill="#C37100"/>
<rect x="62" y="90" width="23" height="2" transform="rotate(-180 62 90)" fill="#C37100"/>
<rect width="16" height="2" transform="matrix(-1 0 0 1 62 90)" fill="#C37100"/>
<rect x="62" y="94" width="9" height="2" transform="rotate(-180 62 94)" fill="#C37100"/>
<rect x="102" y="81" width="38" height="2" transform="rotate(-180 102 81)" fill="#C37100"/>
<rect width="33" height="2" transform="matrix(-1 0 0 1 97 81)" fill="#C37100"/>
<rect x="92" y="85" width="28" height="2" transform="rotate(-180 92 85)" fill="#C37100"/>
<rect width="23" height="2" transform="matrix(-1 0 0 1 87 85)" fill="#C37100"/>
<rect x="83" y="89" width="19" height="2" transform="rotate(-180 83 89)" fill="#C37100"/>
<rect width="14" height="2" transform="matrix(-1 0 0 1 78 89)" fill="#C37100"/>
<rect x="73" y="93" width="9" height="2" transform="rotate(-180 73 93)" fill="#C37100"/>
<rect width="7" height="1" transform="matrix(-1 0 0 1 71 93)" fill="#C37100"/>
<rect width="3" height="1" transform="matrix(-1 0 0 1 90 85)" fill="#C37100"/>
<rect width="3" height="1" transform="matrix(-1 0 0 1 95 83)" fill="#C37100"/>
<rect width="2" height="1" transform="matrix(-1 0 0 1 99 81)" fill="#C37100"/>
<rect width="2" height="1" transform="matrix(-1 0 0 1 104 79)" fill="#C37100"/>
<rect width="2" height="1" transform="matrix(-1 0 0 1 85 87)" fill="#C37100"/>
<rect width="2" height="1" transform="matrix(-1 0 0 1 80 89)" fill="#C37100"/>
<rect width="2" height="1" transform="matrix(-1 0 0 1 75 91)" fill="#C37100"/>
<rect width="2" height="1" transform="matrix(-1 0 0 1 68 94)" fill="#C37100"/>
<rect width="2" height="2" transform="matrix(1 0 0 -1 64 96)" fill="#C37100"/>
<rect width="1" height="2" transform="matrix(1 0 0 -1 61 96)" fill="#C37100"/>
<rect x="61" y="95" width="5" height="1" transform="rotate(-180 61 95)" fill="#C37100"/>
<rect x="53" y="93" width="4" height="1" transform="rotate(-180 53 93)" fill="#C37100"/>
<rect x="46" y="91" width="4" height="1" transform="rotate(-180 46 91)" fill="#C37100"/>
<rect x="39" y="89" width="4" height="1" transform="rotate(-180 39 89)" fill="#C37100"/>
<rect x="31" y="87" width="3" height="1" transform="rotate(-180 31 87)" fill="#C37100"/>
<rect x="24" y="85" width="3" height="1" transform="rotate(-180 24 85)" fill="#C37100"/>
<rect x="17" y="83" width="3" height="1" transform="rotate(-180 17 83)" fill="#C37100"/>
<rect x="10" y="81" width="3" height="1" transform="rotate(-180 10 81)" fill="#C37100"/>
<rect x="2" y="20" width="2" height="2" fill="#C37100"/>
<rect x="105" y="17" width="2" height="62" fill="#794100"/>
<rect y="17" width="2" height="62" fill="#794100"/>
<rect y="79" width="3" height="2" fill="#794100"/>
<rect x="2" y="80" width="5" height="2" fill="#794100"/>
<rect x="9" y="82" width="5" height="2" fill="#794100"/>
<rect x="16" y="84" width="5" height="2" fill="#794100"/>
<rect x="23" y="86" width="5" height="2" fill="#794100"/>
<rect x="30" y="88" width="5" height="2" fill="#794100"/>
<rect x="41" y="91" width="5" height="2" fill="#794100"/>
<rect x="48" y="93" width="5" height="2" fill="#794100"/>
<rect x="55" y="95" width="6" height="2" fill="#794100"/>
<rect x="59" y="96" width="8" height="2" fill="#794100"/>
<rect width="1" height="1" transform="matrix(1 0 0 -1 62 99)" fill="#794100"/>
<rect x="52" y="94" width="4" height="2" fill="#794100"/>
<rect x="68" y="94" width="4" height="2" fill="#794100"/>
<rect x="66" y="95" width="3" height="2" fill="#794100"/>
<rect x="71" y="93" width="3" height="2" fill="#794100"/>
<rect x="73" y="92" width="3" height="2" fill="#794100"/>
<rect x="75" y="91" width="4" height="2" fill="#794100"/>
<rect x="80" y="89" width="4" height="2" fill="#794100"/>
<rect x="87" y="86" width="4" height="2" fill="#794100"/>
<rect x="92" y="84" width="4" height="2" fill="#794100"/>
<rect x="99" y="81" width="4" height="2" fill="#794100"/>
<rect x="78" y="90" width="3" height="2" fill="#794100"/>
<rect x="83" y="88" width="3" height="2" fill="#794100"/>
<rect x="90" y="85" width="3" height="2" fill="#794100"/>
<rect x="95" y="83" width="3" height="2" fill="#794100"/>
<rect x="97" y="82" width="3" height="2" fill="#794100"/>
<rect x="102" y="80" width="3" height="2" fill="#794100"/>
<rect x="104" y="79" width="3" height="2" fill="#794100"/>
<rect x="85" y="87" width="3" height="2" fill="#794100"/>
<rect x="86" y="12" width="4" height="2" fill="#794100"/>
<rect x="89" y="13" width="5" height="2" fill="#794100"/>
<rect x="93" y="14" width="5" height="2" fill="#794100"/>
<rect x="100" y="16" width="5" height="2" fill="#794100"/>
<rect x="82" y="11" width="5" height="2" fill="#794100"/>
<rect x="75" y="9" width="5" height="2" fill="#794100"/>
<rect x="71" y="8" width="5" height="2" fill="#794100"/>
<rect x="64" y="6" width="5" height="2" fill="#794100"/>
<rect x="68" y="7" width="4" height="2" fill="#794100"/>
<rect x="79" y="10" width="4" height="2" fill="#794100"/>
<rect x="97" y="15" width="4" height="2" fill="#794100"/>
<rect x="61" y="5" width="4" height="2" fill="#794100"/>
<rect x="45" y="1" width="5" height="2" fill="#794100"/>
<rect x="56" y="4" width="6" height="2" fill="#794100"/>
<rect x="52" y="3" width="6" height="2" fill="#794100"/>
<rect x="38" y="2" width="4" height="2" fill="#794100"/>
<rect x="35" y="3" width="4" height="2" fill="#794100"/>
<rect x="30" y="5" width="4" height="2" fill="#794100"/>
<rect x="28" y="6" width="3" height="2" fill="#794100"/>
<rect x="10" y="13" width="3" height="2" fill="#794100"/>
<rect x="33" y="4" width="3" height="2" fill="#794100"/>
<rect x="2" y="16" width="3" height="2" fill="#794100"/>
<rect x="4" y="15" width="4" height="2" fill="#794100"/>
<rect x="7" y="14" width="4" height="2" fill="#794100"/>
<rect x="12" y="12" width="4" height="2" fill="#794100"/>
<rect x="15" y="11" width="3" height="2" fill="#794100"/>
<rect x="20" y="9" width="3" height="2" fill="#794100"/>
<rect x="25" y="7" width="4" height="2" fill="#794100"/>
<rect x="22" y="8" width="4" height="2" fill="#794100"/>
<rect x="17" y="10" width="4" height="2" fill="#794100"/>
<rect x="41" y="1" width="3" height="2" fill="#794100"/>
<rect x="43" width="3" height="2" fill="#794100"/>
<rect x="49" y="2" width="4" height="2" fill="#794100"/>
<rect x="45" y="92" width="4" height="2" fill="#794100"/>
<rect x="38" y="90" width="4" height="2" fill="#794100"/>
<rect x="27" y="87" width="4" height="2" fill="#794100"/>
<rect x="34" y="89" width="5" height="2" fill="#794100"/>
<rect x="6" y="81" width="4" height="2" fill="#794100"/>
<rect x="13" y="83" width="4" height="2" fill="#794100"/>
<rect x="20" y="85" width="4" height="2" fill="#794100"/>
<rect x="62" y="36" width="2" height="60" fill="#FFDBA2"/>
<rect x="61" y="34" width="4" height="2" fill="#FFDBA2"/>
<rect x="66" y="32" width="4" height="2" fill="#FFDBA2"/>
<rect x="45" y="30" width="4" height="2" fill="#FFDBA2"/>
<rect x="34" y="27" width="4" height="2" fill="#FFDBA2"/>
<rect x="23" y="24" width="4" height="2" fill="#FFDBA2"/>
<rect x="12" y="21" width="4" height="2" fill="#FFDBA2"/>
<rect x="2" y="18" width="4" height="2" fill="#FFDBA2"/>
<rect x="4" y="19" width="5" height="2" fill="#FFDBA2"/>
<rect x="8" y="20" width="5" height="2" fill="#FFDBA2"/>
<rect x="15" y="22" width="5" height="2" fill="#FFDBA2"/>
<rect x="19" y="23" width="5" height="2" fill="#FFDBA2"/>
<rect x="30" y="26" width="5" height="2" fill="#FFDBA2"/>
<rect x="26" y="25" width="5" height="2" fill="#FFDBA2"/>
<rect x="48" y="31" width="5" height="2" fill="#FFDBA2"/>
<rect x="52" y="32" width="6" height="2" fill="#FFDBA2"/>
<rect x="56" y="33" width="6" height="2" fill="#FFDBA2"/>
<rect x="71" y="30" width="4" height="2" fill="#FFDBA2"/>
<rect x="89" y="23" width="4" height="2" fill="#FFDBA2"/>
<rect x="92" y="22" width="4" height="2" fill="#FFDBA2"/>
<rect x="97" y="20" width="4" height="2" fill="#FFDBA2"/>
<rect x="41" y="29" width="5" height="2" fill="#FFDBA2"/>
<rect x="37" y="28" width="5" height="2" fill="#FFDBA2"/>
<rect x="64" y="33" width="3" height="2" fill="#FFDBA2"/>
<rect x="69" y="31" width="3" height="2" fill="#FFDBA2"/>
<rect x="77" y="28" width="3" height="2" fill="#FFDBA2"/>
<rect x="87" y="24" width="3" height="2" fill="#FFDBA2"/>
<rect x="100" y="19" width="3" height="2" fill="#FFDBA2"/>
<rect x="102" y="18" width="3" height="2" fill="#FFDBA2"/>
<rect x="84" y="25" width="4" height="2" fill="#FFDBA2"/>
<rect x="81" y="26" width="4" height="2" fill="#FFDBA2"/>
<rect x="79" y="27" width="4" height="2" fill="#FFDBA2"/>
<rect x="74" y="29" width="4" height="2" fill="#FFDBA2"/>
<rect x="95" y="21" width="3" height="2" fill="#FFDBA2"/>
<rect x="16" y="13" width="70" height="9" fill="#FFA200"/>
<rect x="39" y="4" width="13" height="9" fill="#FFA200"/>
<rect x="53" y="22" width="16" height="10" fill="#FFA200"/>
<rect width="15" height="6" transform="matrix(-1 0 0 1 53 22)" fill="#FFA200"/>
<rect x="53" y="29" width="11" height="1" transform="rotate(-180 53 29)" fill="#FFA200"/>
<rect x="66" y="33" width="8" height="1" transform="rotate(-180 66 33)" fill="#FFA200"/>
<rect width="2" height="1" transform="matrix(-1 0 0 1 64 33)" fill="#FFA200"/>
<rect width="4" height="1" transform="matrix(-1 0 0 1 53 30)" fill="#FFA200"/>
<rect width="7" height="1" transform="matrix(-1 0 0 1 53 29)" fill="#FFA200"/>
<rect width="4" height="1" transform="matrix(-1 0 0 1 24 22)" fill="#FFA200"/>
<rect width="14" height="2" transform="matrix(1 0 0 -1 24 24)" fill="#FFA200"/>
<rect x="31" y="24" width="7" height="2" fill="#FFA200"/>
<rect width="4" height="1" transform="matrix(-1 0 0 1 31 24)" fill="#FFA200"/>
<rect width="3" height="1" transform="matrix(-1 0 0 1 38 26)" fill="#FFA200"/>
<rect width="4" height="1" transform="matrix(-1 0 0 1 56 5)" fill="#FFA200"/>
<rect x="36" y="5" width="3" height="8" fill="#FFA200"/>
<rect x="31" y="7" width="3" height="6" fill="#FFA200"/>
<rect width="2" height="7" transform="matrix(-1 0 0 1 36 6)" fill="#FFA200"/>
<rect width="7" height="1" transform="matrix(-1 0 0 1 49 3)" fill="#FFA200"/>
<rect width="1" height="1" transform="matrix(-1 0 0 1 45 2)" fill="#FFA200"/>
<rect width="8" height="3" transform="matrix(-1 0 0 1 31 10)" fill="#FFA200"/>
<rect x="31" y="10" width="5" height="1" transform="rotate(-180 31 10)" fill="#FFA200"/>
<rect width="2" height="1" transform="matrix(-1 0 0 1 31 8)" fill="#FFA200"/>
<rect width="2" height="1" transform="matrix(-1 0 0 1 23 11)" fill="#FFA200"/>
<rect width="5" height="1" transform="matrix(-1 0 0 1 23 12)" fill="#FFA200"/>
<rect width="4" height="1" transform="matrix(-1 0 0 1 9 17)" fill="#FFA200"/>
<rect x="9" y="19" width="3" height="1" transform="rotate(-180 9 19)" fill="#FFA200"/>
<rect x="16" y="20" width="7" height="4" transform="rotate(-180 16 20)" fill="#FFA200"/>
<rect width="3" height="2" transform="matrix(-1 0 0 1 16 14)" fill="#FFA200"/>
<rect x="11" y="15" width="2" height="1" fill="#FFA200"/>
<rect x="13" y="20" width="3" height="1" fill="#FFA200"/>
<rect x="8" y="16" width="1" height="1" fill="#FFA200"/>
<rect x="52" y="6" width="9" height="7" fill="#FFA200"/>
<rect width="3" height="6" transform="matrix(-1 0 0 1 64 7)" fill="#FFA200"/>
<rect x="64" y="8" width="4" height="5" fill="#FFA200"/>
<rect width="3" height="4" transform="matrix(-1 0 0 1 71 9)" fill="#FFA200"/>
<rect x="71" y="10" width="4" height="3" fill="#FFA200"/>
<rect width="4" height="2" transform="matrix(-1 0 0 1 79 11)" fill="#FFA200"/>
<rect width="3" height="1" transform="matrix(1 0 0 -1 79 13)" fill="#FFA200"/>
<rect width="3" height="8" transform="matrix(1 0 0 -1 71 30)" fill="#FFA200"/>
<rect x="71" y="31" width="2" height="9" transform="rotate(-180 71 31)" fill="#FFA200"/>
<rect x="77" y="29" width="3" height="7" transform="rotate(-180 77 29)" fill="#FFA200"/>
<rect width="2" height="6" transform="matrix(1 0 0 -1 77 28)" fill="#FFA200"/>
<rect x="81" y="27" width="2" height="5" transform="rotate(-180 81 27)" fill="#FFA200"/>
<rect width="3" height="4" transform="matrix(1 0 0 -1 81 26)" fill="#FFA200"/>
<rect x="87" y="25" width="3" height="3" transform="rotate(-180 87 25)" fill="#FFA200"/>
<rect width="3" height="10" transform="matrix(1 0 0 -1 86 24)" fill="#FFA200"/>
<rect x="92" y="23" width="3" height="8" transform="rotate(-180 92 23)" fill="#FFA200"/>
<rect width="5" height="5" transform="matrix(1 0 0 -1 92 21)" fill="#FFA200"/>
<rect x="100" y="20" width="3" height="3" transform="rotate(-180 100 20)" fill="#FFA200"/>
<rect width="2" height="1" transform="matrix(1 0 0 -1 100 19)" fill="#FFA200"/>
<rect width="3" height="1" transform="matrix(1 0 0 -1 92 22)" fill="#FFA200"/>
<rect width="1" height="1" transform="matrix(1 0 0 -1 92 16)" fill="#FFA200"/>
<rect x="80" y="29" width="5" height="13" fill="#C3A364"/>
<rect width="1" height="14" transform="matrix(-1 0 0 1 86 27)" fill="#C3A364"/>
<rect width="1" height="12" transform="matrix(-1 0 0 1 80 30)" fill="#C3A364"/>
<rect width="3" height="1" transform="matrix(1 0 0 -1 80 43)" fill="#C3A364"/>
<rect width="2" height="1" transform="matrix(1 0 0 -1 83 29)" fill="#C3A364"/>
<rect x="31" y="10" width="6" height="7" fill="#C2BA7A"/>
<rect x="27" y="9" width="7" height="7" fill="#C2BA7A"/>
<rect width="4" height="5" transform="matrix(-1 0 0 1 27 10)" fill="#C2BA7A"/>
<rect x="21" y="11" width="2" height="3" fill="#C2BA7A"/>
<rect width="1" height="2" transform="matrix(-1 0 0 1 21 12)" fill="#C2BA7A"/>
<rect x="18" y="12" width="2" height="1" fill="#C2BA7A"/>
<rect x="26" y="9" width="1" height="1" fill="#C2BA7A"/>
<rect x="29" y="8" width="1" height="1" fill="#C2BA7A"/>
<rect x="34" y="11" width="7" height="7" fill="#C2BA7A"/>
<rect x="38" y="12" width="6" height="7" fill="#C2BA7A"/>
<rect x="41" y="13" width="7" height="7" fill="#C2BA7A"/>
<rect x="45" y="14" width="7" height="7" fill="#C2BA7A"/>
<rect x="52" y="16" width="8" height="7" fill="#C2BA7A"/>
<rect x="49" y="15" width="6" height="7" fill="#C2BA7A"/>
<rect x="56" y="17" width="8" height="7" fill="#C2BA7A"/>
<rect x="64" y="19" width="7" height="7" fill="#C2BA7A"/>
<rect x="61" y="18" width="6" height="7" fill="#C2BA7A"/>
<rect x="68" y="20" width="6" height="7" fill="#C2BA7A"/>
<rect x="71" y="21" width="7" height="7" fill="#C2BA7A"/>
<rect width="3" height="5" transform="matrix(-1 0 0 1 81 22)" fill="#C2BA7A"/>
<rect x="81" y="23" width="3" height="3" fill="#C2BA7A"/>
<rect width="2" height="1" transform="matrix(-1 0 0 1 86 24)" fill="#C2BA7A"/>
<rect width="2" height="1" transform="matrix(-1 0 0 1 77 28)" fill="#C2BA7A"/>
<rect width="1" height="1" transform="matrix(-1 0 0 1 79 27)" fill="#C2BA7A"/>
<rect width="1" height="1" transform="matrix(-1 0 0 1 82 22)" fill="#C2BA7A"/>
<rect x="23" y="10" width="3" height="2" fill="#C2D8CD"/>
<rect x="29" y="12" width="5" height="2" fill="#C2D8CD"/>
<rect x="36" y="14" width="5" height="2" fill="#C2D8CD"/>
<rect x="43" y="16" width="5" height="2" fill="#C2D8CD"/>
<rect x="47" y="17" width="5" height="2" fill="#C2D8CD"/>
<rect x="54" y="19" width="6" height="2" fill="#C2D8CD"/>
<rect x="59" y="20" width="5" height="2" fill="#C2D8CD"/>
<rect x="66" y="22" width="5" height="2" fill="#C2D8CD"/>
<rect x="73" y="24" width="5" height="2" fill="#C2D8CD"/>
<rect x="70" y="23" width="4" height="2" fill="#C2D8CD"/>
<rect x="77" y="25" width="4" height="2" fill="#C2D8CD"/>
<rect width="1" height="1" transform="matrix(-1 0 0 1 82 25)" fill="#C2D8CD"/>
<rect x="63" y="21" width="4" height="2" fill="#C2D8CD"/>
<rect x="51" y="18" width="4" height="2" fill="#C2D8CD"/>
<rect x="40" y="15" width="4" height="2" fill="#C2D8CD"/>
<rect x="33" y="13" width="4" height="2" fill="#C2D8CD"/>
<rect x="25" y="11" width="5" height="2" fill="#C2D8CD"/>
<rect x="97" y="65" width="3" height="13" fill="#794100"/>
<rect width="2" height="1" transform="matrix(1 0 0 -1 97 79)" fill="#794100"/>
<rect width="2" height="2" transform="matrix(1 0 0 -1 94 74)" fill="#794100"/>
<rect width="2" height="3" transform="matrix(1 0 0 -1 95 73)" fill="#794100"/>
<rect width="2" height="3" transform="matrix(1 0 0 -1 100 71)" fill="#794100"/>
<rect width="1" height="3" transform="matrix(1 0 0 -1 96 70)" fill="#794100"/>
<rect width="1" height="2" transform="matrix(1 0 0 -1 98 65)" fill="#794100"/>
<rect width="1" height="1" transform="matrix(1 0 0 -1 99 65)" fill="#794100"/>
<rect width="1" height="1" transform="matrix(1 0 0 -1 102 71)" fill="#794100"/>
<rect width="1" height="1" transform="matrix(1 0 0 -1 100 72)" fill="#794100"/>
<rect width="1" height="2" transform="matrix(1 0 0 -1 100 68)" fill="#794100"/>
<rect x="70" y="83" width="3" height="3" fill="#794100"/>
<rect x="75" y="81" width="3" height="3" fill="#794100"/>
<rect width="2" height="3" transform="matrix(-1 0 0 1 75 82)" fill="#794100"/>
<rect width="2" height="3" transform="matrix(-1 0 0 1 80 80)" fill="#794100"/>
<rect width="2" height="3" transform="matrix(-1 0 0 1 70 84)" fill="#794100"/>
<rect width="1" height="1" transform="matrix(-1 0 0 1 68 85)" fill="#794100"/>
<rect width="1" height="1" transform="matrix(-1 0 0 1 81 81)" fill="#794100"/>
<rect width="2" height="1" transform="matrix(-1 0 0 1 93 80)" fill="#794100"/>
<rect width="2" height="1" transform="matrix(-1 0 0 1 91 81)" fill="#794100"/>
<rect width="2" height="1" transform="matrix(-1 0 0 1 86 83)" fill="#794100"/>
<rect width="2" height="1" transform="matrix(-1 0 0 1 81 85)" fill="#794100"/>
<rect width="2" height="1" transform="matrix(-1 0 0 1 69 90)" fill="#794100"/>
<rect width="2" height="1" transform="matrix(-1 0 0 1 76 87)" fill="#794100"/>
<rect width="3" height="1" transform="matrix(-1 0 0 1 74 88)" fill="#794100"/>
<rect width="3" height="1" transform="matrix(-1 0 0 1 79 86)" fill="#794100"/>
<rect width="3" height="1" transform="matrix(-1 0 0 1 84 84)" fill="#794100"/>
<rect width="3" height="1" transform="matrix(-1 0 0 1 89 82)" fill="#794100"/>
<rect width="2" height="1" transform="matrix(-1 0 0 1 71 89)" fill="#794100"/>
<rect x="5" y="62" width="2" height="9" fill="#794100"/>
<rect x="9" y="63" width="2" height="9" fill="#794100"/>
<rect x="12" y="64" width="2" height="9" fill="#794100"/>
<rect x="7" y="66" width="2" height="2" fill="#794100"/>
<rect x="14" y="69" width="3" height="2" fill="#794100"/>
<rect x="14" y="65" width="3" height="2" fill="#794100"/>
<rect x="18" y="70" width="2" height="4" transform="rotate(-180 18 70)" fill="#794100"/>
<rect x="21" y="74" width="2" height="5" transform="rotate(-180 21 74)" fill="#794100"/>
<rect x="15" y="65" width="1" height="1" transform="rotate(-180 15 65)" fill="#794100"/>
<rect x="22" y="70" width="2" height="2" transform="rotate(-180 22 70)" fill="#794100"/>
<rect x="26" y="75" width="2" height="2" transform="rotate(-180 26 75)" fill="#794100"/>
<rect x="22" y="75" width="2" height="2" transform="rotate(-180 22 75)" fill="#794100"/>
<rect x="25" y="70" width="2" height="2" transform="rotate(-180 25 70)" fill="#794100"/>
<rect x="26" y="71" width="2" height="2" transform="rotate(-180 26 71)" fill="#794100"/>
<rect x="24" y="69" width="3" height="2" transform="rotate(-180 24 69)" fill="#794100"/>
<rect x="25" y="76" width="4" height="2" transform="rotate(-180 25 76)" fill="#794100"/>
<rect x="18" y="80" width="3" height="2" transform="rotate(-180 18 80)" fill="#794100"/>
<rect x="16" y="79" width="3" height="2" transform="rotate(-180 16 79)" fill="#794100"/>
<rect x="12" y="77" width="2" height="1" transform="rotate(-180 12 77)" fill="#794100"/>
<rect x="7" y="75" width="2" height="1" transform="rotate(-180 7 75)" fill="#794100"/>
<rect x="7" y="77" width="2" height="1" transform="rotate(-180 7 77)" fill="#794100"/>
<rect x="12" y="79" width="2" height="1" transform="rotate(-180 12 79)" fill="#794100"/>
<rect x="10" y="78" width="3" height="1" transform="rotate(-180 10 78)" fill="#794100"/>
<rect x="10" y="76" width="3" height="1" transform="rotate(-180 10 76)" fill="#794100"/>
<rect x="43" y="69" width="10" height="13" fill="#794100"/>
<rect width="4" height="11" transform="matrix(-1 0 0 1 43 75)" fill="#794100"/>
<rect width="3" height="5" transform="matrix(-1 0 0 1 42 68)" fill="#794100"/>
<rect width="2" height="3" transform="matrix(1 0 0 -1 41 74)" fill="#794100"/>
<rect width="4" height="7" transform="matrix(1 0 0 -1 38 68)" fill="#794100"/>
<rect x="44" y="69" width="2" height="7" transform="rotate(-180 44 69)" fill="#794100"/>
<rect width="2" height="6" transform="matrix(1 0 0 -1 44 69)" fill="#794100"/>
<rect x="48" y="69" width="2" height="5" transform="rotate(-180 48 69)" fill="#794100"/>
<rect width="2" height="3" transform="matrix(1 0 0 -1 48 69)" fill="#794100"/>
<rect x="51" y="69" width="1" height="2" transform="rotate(-180 51 69)" fill="#794100"/>
<rect width="1" height="1" transform="matrix(1 0 0 -1 51 69)" fill="#794100"/>
<rect width="10" height="3" transform="matrix(1 0 0 -1 47 63)" fill="#794100"/>
<rect x="49" y="62" width="3" height="6" transform="rotate(-180 49 62)" fill="#794100"/>
<rect x="47" y="55" width="3" height="2" fill="#794100"/>
<rect x="48" y="54" width="3" height="2" fill="#794100"/>
<rect x="44" y="51" width="10" height="3" fill="#794100"/>
<rect width="2" height="2" transform="matrix(-1 0 0 1 56 51)" fill="#794100"/>
<rect width="7" height="1" transform="matrix(1 0 0 -1 48 51)" fill="#794100"/>
<rect width="2" height="1" transform="matrix(-1 0 0 1 58 51)" fill="#794100"/>
<rect width="2" height="3" transform="matrix(-1 0 0 1 44 52)" fill="#794100"/>
<rect width="2" height="3" transform="matrix(-1 0 0 1 40 56)" fill="#794100"/>
<rect width="1" height="1" transform="matrix(1 0 0 -1 38 60)" fill="#794100"/>
<rect width="2" height="2" transform="matrix(1 0 0 -1 39 57)" fill="#794100"/>
<rect width="2" height="2" transform="matrix(1 0 0 -1 40 56)" fill="#794100"/>
<rect x="41" y="53" width="1" height="1" fill="#794100"/>
<rect x="51" y="54" width="1" height="1" fill="#794100"/>
<rect x="55" y="57" width="1" height="1" fill="#794100"/>
<rect width="2" height="1" transform="matrix(1 0 0 -1 54 59)" fill="#794100"/>
<rect width="4" height="1" transform="matrix(1 0 0 -1 53 60)" fill="#794100"/>
<rect width="5" height="1" transform="matrix(1 0 0 -1 52 64)" fill="#794100"/>
<rect x="53" y="64" width="3" height="1" fill="#794100"/>
<rect width="2" height="1" transform="matrix(1 0 0 -1 53 66)" fill="#794100"/>
<rect width="2" height="1" transform="matrix(1 0 0 -1 52 67)" fill="#794100"/>
<rect width="1" height="1" transform="matrix(1 0 0 -1 52 68)" fill="#794100"/>
<rect width="1" height="1" transform="matrix(1 0 0 -1 48 66)" fill="#794100"/>
<rect width="1" height="2" transform="matrix(1 0 0 -1 53 72)" fill="#794100"/>
<rect width="2" height="13" transform="matrix(1 0 0 -1 53 85)" fill="#794100"/>
<rect x="56" y="84" width="1" height="9" transform="rotate(-180 56 84)" fill="#794100"/>
<rect x="51" y="88" width="8" height="2" transform="rotate(-180 51 88)" fill="#794100"/>
<rect x="53" y="87" width="12" height="2" transform="rotate(-180 53 87)" fill="#794100"/>
<rect width="3" height="3" transform="matrix(-1 0 0 1 46 82)" fill="#794100"/>
<rect x="46" y="82" width="2" height="2" fill="#794100"/>
<rect x="47" y="83" width="3" height="2" fill="#794100"/>
<rect x="51" y="83" width="2" height="2" fill="#794100"/>
<rect width="1" height="1" transform="matrix(-1 0 0 1 51 84)" fill="#794100"/>
<rect width="4" height="1" transform="matrix(-1 0 0 1 53 82)" fill="#794100"/>
<rect width="1" height="1" transform="matrix(-1 0 0 1 39 84)" fill="#794100"/>
<rect width="2" height="5" transform="matrix(1 0 0 -1 37 84)" fill="#794100"/>
<rect width="2" height="8" transform="matrix(1 0 0 -1 34 80)" fill="#794100"/>
<rect width="3" height="12" transform="matrix(1 0 0 -1 35 77)" fill="#794100"/>
<rect x="36" y="63" width="2" height="2" fill="#794100"/>
<rect width="1" height="1" transform="matrix(1 0 0 -1 37 63)" fill="#794100"/>
<rect width="1" height="2" transform="matrix(1 0 0 -1 38 72)" fill="#794100"/>
<rect width="1" height="5" transform="matrix(1 0 0 -1 38 78)" fill="#794100"/>
<rect x="41" y="75" width="2" height="1" transform="rotate(-180 41 75)" fill="#794100"/>
<rect x="38" y="79" width="2" height="1" transform="rotate(-180 38 79)" fill="#794100"/>
<rect x="37" y="82" width="2" height="2" transform="rotate(-180 37 82)" fill="#794100"/>
<rect width="1" height="1" transform="matrix(-1 0 0 1 37 82)" fill="#794100"/>
<rect width="1" height="1" transform="matrix(-1 0 0 1 38 77)" fill="#794100"/>
<rect width="1" height="1" transform="matrix(-1 0 0 1 54 85)" fill="#794100"/>
</svg>
