<svg width="157" height="57" viewBox="0 0 157 57" fill="none" xmlns="http://www.w3.org/2000/svg">
<path fill-rule="evenodd" clip-rule="evenodd" d="M23.3425 26.9075C23.1152 27.134 22.888 26.6809 23.3425 26.9075C24.8193 25.0951 26.8642 20.3376 26.4098 17.9589C24.0241 20.904 20.3887 21.2438 16.9805 20.6774L16.1852 19.3181C14.1403 15.6934 16.6397 10.8226 19.2526 7.99075C11.4138 10.143 8.91444 13.5412 6.18789 22.0367C2.09806 8.89694 22.2064 -0.73134 32.999 0.627947C27.3187 3.45979 18.4574 10.3695 20.0479 16.0332C24.1377 16.5996 26.4098 14.3341 29.1364 9.01022C31.7493 18.865 27.2051 24.9818 23.3425 26.9075V26.9075Z" fill="black"/>
<path fill-rule="evenodd" clip-rule="evenodd" d="M4.02898 51.3747C3.68816 51.3747 3.34734 51.488 3.34734 51.7145C3.34734 51.9411 3.68816 52.1676 4.02898 52.1676C4.3698 52.1676 4.59701 51.9411 4.59701 51.7145C4.59701 51.488 4.3698 51.3747 4.02898 51.3747ZM20.2747 25.6615C24.3645 29.3996 27.4319 31.0987 29.0224 40.5004C30.1584 46.8438 26.7502 55.6791 16.1849 56.472C11.4134 56.6986 4.3698 55.5658 1.52964 52.3942C-1.19692 49.2225 0.393577 44.1252 1.18882 40.3871C1.98407 36.6491 1.87046 34.1571 2.09767 31.0987C2.32488 28.1536 2.77931 24.5288 6.3011 23.0562C9.70929 21.4704 16.1849 22.0368 20.2747 25.6615V25.6615ZM2.09767 49.7889C2.5521 49.9022 3.00652 49.7889 3.00652 49.4491C3.12013 49.1092 2.77931 48.8827 2.32488 48.7694C1.75685 48.6561 1.30242 48.7694 1.30242 49.1092C1.18882 49.3358 1.52964 49.6756 2.09767 49.7889V49.7889ZM21.9788 49.9021C21.7516 50.1287 21.638 50.4685 21.7516 50.5818C21.8652 50.6951 22.206 50.6951 22.4332 50.4685C22.774 50.242 22.8876 49.9022 22.774 49.7889C22.6604 49.5623 22.3196 49.6756 21.9788 49.9021ZM19.025 48.8827C18.5706 49.1092 18.3434 49.5623 18.457 49.7889C18.5706 50.0154 19.025 50.1287 19.4794 49.9021C19.9339 49.6756 20.1611 49.2225 20.0475 48.996C19.9339 48.7694 19.4794 48.6561 19.025 48.8827ZM20.1611 28.1536C19.9339 28.2668 20.0475 28.6067 20.2747 28.8332C20.6155 29.173 20.8427 29.173 21.0699 29.0597C21.1835 28.9465 21.0699 28.6066 20.8427 28.3801C20.6155 28.0403 20.2747 28.0403 20.1611 28.1536V28.1536ZM16.0713 27.8137C15.844 28.0403 16.0713 28.4934 16.5257 28.7199C16.8665 29.0597 17.3209 29.0597 17.5481 28.8332C17.6617 28.6067 17.5481 28.1536 17.0937 27.8137C16.6393 27.5872 16.1849 27.5872 16.0713 27.8137ZM17.7753 26.1146C17.5481 26.3412 17.7753 26.7943 18.2298 27.0208C18.5706 27.2474 19.025 27.3606 19.2522 27.0208C19.3658 26.7943 19.2522 26.3412 18.7978 26.1146C18.3434 25.8881 17.889 25.7748 17.7753 26.1146ZM16.7529 52.8473C16.4121 52.9605 16.1849 53.4136 16.2985 53.6402C16.4121 53.8667 16.8665 53.8667 17.2073 53.6402C17.6617 53.5269 17.889 53.0738 17.7753 52.8473C17.6617 52.6207 17.2073 52.6207 16.7529 52.8473ZM19.593 51.1482C19.1386 51.3747 18.7978 51.8278 19.025 52.0544C19.1386 52.3942 19.593 52.3942 20.0475 52.1676C20.5019 51.9411 20.7291 51.488 20.6155 51.2614C20.5019 51.0349 20.0475 50.9216 19.593 51.1482ZM7.32356 40.9535C9.48208 41.7464 11.7542 41.2933 12.4358 39.934C12.5495 39.7075 12.5495 39.3677 12.5495 39.0278L4.3698 38.2349C4.59701 39.2544 5.73307 40.3871 7.32356 40.9535ZM6.07389 35.6296C6.75553 35.5164 7.20995 34.4969 6.98274 33.3642C6.86913 32.2314 6.07389 31.3252 5.39225 31.4385C4.71062 31.5518 4.3698 32.5712 4.4834 33.704C4.71062 34.8367 5.39225 35.7429 6.07389 35.6296ZM10.7317 34.2703C10.959 35.4031 11.6406 36.3093 12.3222 36.196C13.0039 36.0827 13.4583 35.0633 13.2311 33.9305C13.1175 32.7978 12.3222 31.8916 11.6406 32.0049C10.959 32.1181 10.6181 33.1376 10.7317 34.2703Z" fill="black"/>
<path d="M43.21 18L45.8662 2H49.7334L48.6709 8.42187H54.9756L56.0381 2H59.8975L57.2412 18H53.3818L54.4443 11.5703H48.1396L47.0771 18H43.21ZM75.3976 10.25C75.106 11.974 74.533 13.4297 73.6789 14.6172C72.8299 15.7995 71.7961 16.6953 70.5773 17.3047C69.3638 17.9141 68.0591 18.2187 66.6632 18.2187C65.1893 18.2187 63.9132 17.8906 62.8351 17.2344C61.757 16.5781 60.9731 15.6224 60.4836 14.3672C59.9992 13.112 59.9054 11.5885 60.2023 9.79687C60.4836 8.07292 61.0487 6.61458 61.8976 5.42187C62.7518 4.22917 63.7908 3.32552 65.0148 2.71094C66.244 2.09115 67.5617 1.78125 68.9679 1.78125C70.4315 1.78125 71.6997 2.11198 72.7726 2.77344C73.8507 3.4349 74.632 4.39583 75.1164 5.65625C75.6007 6.91667 75.6945 8.44792 75.3976 10.25ZM71.5304 9.79687C71.6919 8.79167 71.6919 7.94531 71.5304 7.25781C71.3742 6.57031 71.0669 6.05208 70.6086 5.70312C70.1502 5.34896 69.5539 5.17187 68.8195 5.17187C68.007 5.17187 67.2726 5.3724 66.6164 5.77344C65.9653 6.16927 65.4211 6.7474 64.9836 7.50781C64.5461 8.26302 64.2414 9.17708 64.0695 10.25C63.8924 11.2656 63.8872 12.112 64.0539 12.7891C64.2257 13.4661 64.5461 13.9766 65.0148 14.3203C65.4836 14.6589 66.0799 14.8281 66.8039 14.8281C67.6112 14.8281 68.3377 14.6328 68.9836 14.2422C69.6294 13.8516 70.1685 13.2812 70.6007 12.5312C71.0382 11.7813 71.3481 10.8698 71.5304 9.79687ZM76.5775 5.14062L77.1087 2H90.6321L90.1009 5.14062H85.2493L83.1243 18H79.3118L81.4368 5.14062H76.5775ZM43.21 37L45.8662 21H52.4756C53.6735 21 54.6709 21.2318 55.4678 21.6953C56.2646 22.1589 56.8298 22.8073 57.1631 23.6406C57.4964 24.474 57.5719 25.4401 57.3896 26.5391C57.2126 27.6484 56.8141 28.6146 56.1943 29.4375C55.5798 30.2604 54.7881 30.8984 53.8193 31.3516C52.8506 31.8047 51.749 32.0312 50.5146 32.0312H46.4443L46.9521 28.9844H50.3115C50.9001 28.9844 51.4079 28.8828 51.835 28.6797C52.2673 28.4766 52.6136 28.1927 52.874 27.8281C53.1344 27.4635 53.3063 27.0339 53.3896 26.5391C53.4678 26.0443 53.4365 25.6172 53.2959 25.2578C53.1553 24.8932 52.9027 24.612 52.5381 24.4141C52.1787 24.2161 51.71 24.1172 51.1318 24.1172H49.2256L47.0771 37H43.21ZM73.2707 29.25C72.979 30.974 72.4061 32.4297 71.5519 33.6172C70.703 34.7995 69.6691 35.6953 68.4504 36.3047C67.2368 36.9141 65.9321 37.2187 64.5363 37.2187C63.0623 37.2187 61.7863 36.8906 60.7082 36.2344C59.63 35.5781 58.8462 34.6224 58.3566 33.3672C57.8722 32.112 57.7785 30.5885 58.0754 28.7969C58.3566 27.0729 58.9217 25.6146 59.7707 24.4219C60.6248 23.2292 61.6639 22.3255 62.8879 21.7109C64.117 21.0911 65.4347 20.7812 66.841 20.7812C68.3045 20.7812 69.5727 21.112 70.6457 21.7734C71.7238 22.4349 72.505 23.3958 72.9894 24.6562C73.4738 25.9167 73.5675 27.4479 73.2707 29.25ZM69.4035 28.7969C69.5649 27.7917 69.5649 26.9453 69.4035 26.2578C69.2472 25.5703 68.9399 25.0521 68.4816 24.7031C68.0233 24.349 67.4269 24.1719 66.6925 24.1719C65.88 24.1719 65.1457 24.3724 64.4894 24.7734C63.8384 25.1693 63.2941 25.7474 62.8566 26.5078C62.4191 27.263 62.1144 28.1771 61.9425 29.25C61.7655 30.2656 61.7602 31.112 61.9269 31.7891C62.0988 32.4661 62.4191 32.9766 62.8879 33.3203C63.3566 33.6589 63.953 33.8281 64.6769 33.8281C65.4842 33.8281 66.2108 33.6328 66.8566 33.2422C67.5024 32.8516 68.0415 32.2812 68.4738 31.5312C68.9113 30.7813 69.2212 29.8698 69.4035 28.7969ZM74.4505 24.1406L74.9818 21H88.5052L87.9739 24.1406H83.1224L80.9974 37H77.1849L79.3099 24.1406H74.4505ZM88.5405 37H84.3843L92.4389 21H97.5874L100.33 37H96.1733L94.4155 25.0312H94.2905L88.5405 37ZM89.0405 30.7031H97.728L97.228 33.6406H88.5405L89.0405 30.7031ZM100.996 24.1406L101.527 21H115.05L114.519 24.1406H109.668L107.543 37H103.73L105.855 24.1406H100.996ZM129.283 29.25C128.991 30.974 128.418 32.4297 127.564 33.6172C126.715 34.7995 125.681 35.6953 124.463 36.3047C123.249 36.9141 121.944 37.2187 120.549 37.2187C119.075 37.2187 117.799 36.8906 116.721 36.2344C115.642 35.5781 114.859 34.6224 114.369 33.3672C113.885 32.112 113.791 30.5885 114.088 28.7969C114.369 27.0729 114.934 25.6146 115.783 24.4219C116.637 23.2292 117.676 22.3255 118.9 21.7109C120.129 21.0911 121.447 20.7812 122.853 20.7812C124.317 20.7812 125.585 21.112 126.658 21.7734C127.736 22.4349 128.517 23.3958 129.002 24.6562C129.486 25.9167 129.58 27.4479 129.283 29.25ZM125.416 28.7969C125.577 27.7917 125.577 26.9453 125.416 26.2578C125.26 25.5703 124.952 25.0521 124.494 24.7031C124.036 24.349 123.439 24.1719 122.705 24.1719C121.892 24.1719 121.158 24.3724 120.502 24.7734C119.851 25.1693 119.306 25.7474 118.869 26.5078C118.431 27.263 118.127 28.1771 117.955 29.25C117.778 30.2656 117.773 31.112 117.939 31.7891C118.111 32.4661 118.431 32.9766 118.9 33.3203C119.369 33.6589 119.965 33.8281 120.689 33.8281C121.497 33.8281 122.223 33.6328 122.869 33.2422C123.515 32.8516 124.054 32.2812 124.486 31.5312C124.924 30.7813 125.234 29.8698 125.416 28.7969ZM129.592 37L132.248 21H143.404L142.873 24.1406H135.584L135.053 27.4219H141.771L141.24 30.5703H134.521L133.99 33.8594H141.279L140.748 37H129.592ZM153.002 25.8281C153.044 25.2396 152.887 24.7839 152.533 24.4609C152.184 24.138 151.632 23.9766 150.877 23.9766C150.377 23.9766 149.95 24.0417 149.596 24.1719C149.242 24.2969 148.963 24.474 148.76 24.7031C148.557 24.9271 148.429 25.1875 148.377 25.4844C148.33 25.7188 148.343 25.9271 148.416 26.1094C148.489 26.2917 148.617 26.4531 148.799 26.5937C148.986 26.7344 149.218 26.8568 149.494 26.9609C149.776 27.0651 150.091 27.1562 150.44 27.2344L151.752 27.5469C152.512 27.7188 153.171 27.9479 153.729 28.2344C154.291 28.5156 154.747 28.8568 155.096 29.2578C155.445 29.6536 155.684 30.1094 155.815 30.625C155.945 31.1406 155.955 31.7187 155.846 32.3594C155.679 33.3698 155.281 34.237 154.651 34.9609C154.026 35.6849 153.208 36.2396 152.197 36.625C151.192 37.0104 150.023 37.2031 148.69 37.2031C147.356 37.2031 146.223 37.0026 145.291 36.6016C144.364 36.1953 143.692 35.5833 143.276 34.7656C142.859 33.9479 142.747 32.9167 142.94 31.6719H146.635C146.578 32.1875 146.643 32.6172 146.83 32.9609C147.023 33.3047 147.32 33.5651 147.721 33.7422C148.122 33.9193 148.606 34.0078 149.174 34.0078C149.695 34.0078 150.151 33.9375 150.541 33.7969C150.937 33.6563 151.252 33.4609 151.486 33.2109C151.726 32.9609 151.872 32.6745 151.924 32.3516C151.976 32.0547 151.927 31.7969 151.776 31.5781C151.63 31.3594 151.38 31.1693 151.026 31.0078C150.677 30.8464 150.218 30.7005 149.651 30.5703L148.049 30.1797C146.726 29.8568 145.723 29.3411 145.041 28.6328C144.364 27.9245 144.124 26.9635 144.322 25.75C144.489 24.7552 144.901 23.8854 145.557 23.1406C146.218 22.3958 147.054 21.8177 148.065 21.4063C149.08 20.9896 150.197 20.7812 151.416 20.7812C152.656 20.7812 153.697 20.9922 154.541 21.4141C155.39 21.8307 156.002 22.4193 156.377 23.1797C156.757 23.9349 156.867 24.8177 156.705 25.8281H153.002ZM59.4131 45.7969H55.5537C55.5745 45.3906 55.5355 45.0286 55.4365 44.7109C55.3376 44.388 55.1813 44.112 54.9678 43.8828C54.7542 43.6484 54.4886 43.4714 54.1709 43.3516C53.8532 43.2318 53.4834 43.1719 53.0615 43.1719C52.2542 43.1719 51.5225 43.3724 50.8662 43.7734C50.21 44.1745 49.6605 44.7526 49.2178 45.5078C48.7751 46.263 48.4652 47.1693 48.2881 48.2266C48.1266 49.2474 48.1292 50.099 48.2959 50.7812C48.4678 51.4635 48.7855 51.9766 49.249 52.3203C49.7126 52.6589 50.3011 52.8281 51.0146 52.8281C51.4782 52.8281 51.9079 52.7734 52.3037 52.6641C52.7048 52.5495 53.0667 52.3854 53.3896 52.1719C53.7126 51.9583 53.9912 51.7005 54.2256 51.3984C54.4652 51.0911 54.6501 50.75 54.7803 50.375H58.6709C58.4782 51.0781 58.1605 51.7786 57.7178 52.4766C57.2803 53.1693 56.7282 53.7969 56.0615 54.3594C55.3949 54.9219 54.6214 55.3724 53.7412 55.7109C52.861 56.0495 51.8818 56.2187 50.8037 56.2187C49.3298 56.2187 48.0589 55.888 46.9912 55.2266C45.9287 54.5651 45.1605 53.6068 44.6865 52.3516C44.2178 51.0911 44.1292 49.5651 44.4209 47.7734C44.7074 46.0391 45.2725 44.5781 46.1162 43.3906C46.9652 42.2031 47.9964 41.3047 49.21 40.6953C50.4287 40.0859 51.7282 39.7812 53.1084 39.7812C54.1084 39.7812 55.0068 39.9167 55.8037 40.1875C56.6058 40.4531 57.2855 40.8437 57.8428 41.3594C58.4001 41.8698 58.8141 42.4974 59.085 43.2422C59.361 43.987 59.4704 44.8385 59.4131 45.7969ZM59.2863 56L61.9425 40H65.8097L63.6847 52.8594H70.341L69.8097 56H59.2863ZM83.4876 40H87.347L85.6361 50.3203C85.4381 51.513 84.9824 52.5521 84.2689 53.4375C83.5605 54.3177 82.6569 55 81.5579 55.4844C80.459 55.9635 79.235 56.2031 77.8861 56.2031C76.5319 56.2031 75.3887 55.9635 74.4564 55.4844C73.5241 55 72.8496 54.3177 72.4329 53.4375C72.0163 52.5521 71.9043 51.513 72.097 50.3203L73.8079 40H77.6751L76.0111 49.9844C75.9225 50.5365 75.9642 51.0286 76.1361 51.4609C76.3131 51.888 76.5996 52.2266 76.9954 52.4766C77.3913 52.7214 77.8756 52.8438 78.4486 52.8438C79.0267 52.8438 79.5553 52.7214 80.0345 52.4766C80.5137 52.2266 80.9095 51.888 81.222 51.4609C81.5345 51.0286 81.735 50.5365 81.8236 49.9844L83.4876 40ZM86.4546 56L89.1108 40H95.7827C96.9806 40 97.9572 40.1693 98.7124 40.5078C99.4676 40.8464 99.9988 41.3203 100.306 41.9297C100.619 42.5391 100.707 43.2448 100.572 44.0469C100.462 44.651 100.238 45.1927 99.8999 45.6719C99.5666 46.1458 99.1499 46.5417 98.6499 46.8594C98.1499 47.1719 97.5978 47.3906 96.9936 47.5156L96.9624 47.6719C97.6082 47.6979 98.1785 47.8698 98.6733 48.1875C99.1733 48.5052 99.5431 48.9505 99.7827 49.5234C100.022 50.0911 100.077 50.7578 99.9468 51.5234C99.8061 52.3828 99.4598 53.151 98.9077 53.8281C98.3608 54.5 97.6395 55.0312 96.7436 55.4219C95.8478 55.8073 94.8113 56 93.6343 56H86.4546ZM90.853 52.8828H93.2436C94.0718 52.8828 94.7124 52.724 95.1655 52.4062C95.6238 52.0833 95.8947 51.6406 95.978 51.0781C96.0457 50.6667 96.0093 50.3125 95.8686 50.0156C95.728 49.7135 95.4936 49.4818 95.1655 49.3203C94.8374 49.1536 94.4233 49.0703 93.9233 49.0703H91.4624L90.853 52.8828ZM91.8921 46.5781H94.0405C94.4572 46.5781 94.84 46.5078 95.1889 46.3672C95.5431 46.2266 95.8348 46.0234 96.0639 45.7578C96.2983 45.4922 96.4442 45.1719 96.5014 44.7969C96.59 44.2604 96.4676 43.8385 96.1343 43.5312C95.8009 43.224 95.3139 43.0703 94.6733 43.0703H92.4702L91.8921 46.5781Z" fill="black"/>
</svg>
