<svg width="32" height="28" viewBox="0 0 32 28" fill="none" xmlns="http://www.w3.org/2000/svg">
<path d="M23.5887 8.55391C23.012 8.19873 22.2622 8.19873 21.6278 8.55391L17.1292 11.2769L14.0724 13.0528L9.57389 15.7759C8.99718 16.131 8.24739 16.131 7.61298 15.7759L4.03719 13.6448C3.46045 13.2897 3.05672 12.6385 3.05672 11.9281V7.72515C3.05672 7.01479 3.40277 6.36363 4.03719 6.00845L7.5553 3.93657C8.13204 3.58139 8.88177 3.58139 9.51623 3.93657L13.0343 6.00845C13.6111 6.36363 14.0148 7.01479 14.0148 7.72515V10.4482L17.0715 8.6131V5.89006C17.0715 5.1797 16.7255 4.52854 16.0911 4.17336L9.57389 0.266385C8.99718 -0.0887949 8.24739 -0.0887949 7.61298 0.266385L0.980463 4.17336C0.346045 4.52854 0 5.1797 0 5.89006V13.7632C0 14.4735 0.346045 15.1247 0.980463 15.4799L7.61298 19.3868C8.18972 19.7421 8.93952 19.7421 9.57389 19.3868L14.0724 16.723L17.1292 14.8879L21.6278 12.2241C22.2045 11.8689 22.9543 11.8689 23.5887 12.2241L27.1068 14.296C27.6836 14.6512 28.0873 15.3023 28.0873 16.0127V20.2156C28.0873 20.926 27.7412 21.5771 27.1068 21.9323L23.5887 24.0634C23.012 24.4186 22.2622 24.4186 21.6278 24.0634L18.1097 21.9915C17.5329 21.6364 17.1292 20.9852 17.1292 20.2748V17.5518L14.0724 19.3868V22.1099C14.0724 22.8202 14.4185 23.4714 15.053 23.8266L21.6855 27.7336C22.2622 28.0888 23.012 28.0888 23.6463 27.7336L30.2789 23.8266C30.8556 23.4714 31.2593 22.8202 31.2593 22.1099V14.2368C31.2593 13.5264 30.9133 12.8753 30.2789 12.5201L23.5887 8.55391Z" fill="#794EDD"/>
</svg>
