<svg width="198" height="167" viewBox="0 0 198 167" fill="none" xmlns="http://www.w3.org/2000/svg">
<rect y="27.1552" width="151.293" height="139.655" fill="#0A0A0A"/>
<rect y="23.2759" width="3.87931" height="3.87931" fill="#212121"/>
<rect x="7.75854" y="19.3965" width="3.87931" height="3.87931" fill="#212121"/>
<rect x="11.6379" y="19.3965" width="3.87931" height="3.87931" fill="#212121"/>
<rect x="15.5173" y="15.5172" width="3.87931" height="3.87931" fill="#333333"/>
<rect x="19.3965" y="15.5172" width="3.87931" height="3.87931" fill="#333333"/>
<rect x="23.2759" y="11.6379" width="3.87931" height="3.87931" fill="#333333"/>
<rect x="27.1553" y="11.6379" width="3.87931" height="3.87931" fill="#333333"/>
<rect x="31.0344" y="7.75862" width="3.87931" height="3.87931" fill="#212121"/>
<rect x="34.9138" y="7.75862" width="3.87931" height="3.87931" fill="#212121"/>
<rect x="38.7932" y="3.8793" width="3.87931" height="3.87931" fill="#212121"/>
<rect x="42.6724" y="3.8793" width="3.87931" height="3.87931" fill="#212121"/>
<rect x="46.5518" width="77.5862" height="3.87931" fill="#212121"/>
<rect x="124.138" width="73.7069" height="3.87931" fill="#212121"/>
<rect x="3.87939" y="23.2759" width="3.87931" height="3.87931" fill="#212121"/>
<rect x="7.75854" y="23.2759" width="143.534" height="3.87931" fill="#212121"/>
<rect x="15.5173" y="19.3965" width="143.534" height="3.87931" fill="#212121"/>
<rect x="23.2759" y="15.5172" width="143.534" height="3.87931" fill="#333333"/>
<rect x="31.0344" y="11.6379" width="143.534" height="3.87931" fill="#333333"/>
<rect x="38.7932" y="7.75862" width="143.534" height="3.87931" fill="#212121"/>
<rect x="46.5518" y="3.8793" width="143.534" height="3.87931" fill="#212121"/>
<rect x="151.293" y="23.2759" width="3.87931" height="3.87931" fill="#212121"/>
<rect x="155.172" y="23.2759" width="3.87931" height="3.87931" fill="#272727"/>
<rect x="162.931" y="19.3965" width="3.87931" height="3.87931" fill="#272727"/>
<rect x="170.69" y="15.5172" width="3.87931" height="3.87931" fill="#272727"/>
<rect x="178.448" y="11.6379" width="3.87931" height="3.87931" fill="#272727"/>
<rect x="186.207" y="7.75862" width="3.87931" height="3.87931" fill="#272727"/>
<rect x="193.966" y="3.8793" width="3.87931" height="3.87931" fill="#272727"/>
<rect x="159.052" y="19.3965" width="3.87931" height="3.87931" fill="#212121"/>
<rect x="166.81" y="15.5172" width="3.87931" height="3.87931" fill="#333333"/>
<rect x="174.569" y="11.6379" width="3.87931" height="3.87931" fill="#333333"/>
<rect x="182.328" y="7.75862" width="3.87931" height="3.87931" fill="#212121"/>
<rect x="190.086" y="3.8793" width="3.87931" height="3.87931" fill="#212121"/>
<rect x="151.293" y="162.931" width="3.87931" height="3.87931" fill="#272727"/>
<rect x="159.052" y="159.052" width="3.87931" height="3.87931" fill="#272727"/>
<rect x="162.931" y="159.052" width="3.87931" height="3.87931" fill="#272727"/>
<rect x="166.81" y="155.172" width="3.87931" height="3.87931" fill="#272727"/>
<rect x="170.69" y="155.172" width="3.87931" height="3.87931" fill="#272727"/>
<rect x="174.569" y="151.293" width="3.87931" height="3.87931" fill="#272727"/>
<rect x="178.448" y="151.293" width="3.87931" height="3.87931" fill="#272727"/>
<rect x="182.328" y="147.414" width="3.87931" height="3.87931" fill="#272727"/>
<rect x="186.207" y="147.414" width="3.87931" height="3.87931" fill="#272727"/>
<rect x="190.086" y="143.534" width="3.87931" height="3.87931" fill="#272727"/>
<rect x="193.966" y="143.534" width="3.87931" height="3.87931" fill="#272727"/>
<rect x="155.172" y="162.931" width="3.87931" height="3.87931" fill="#272727"/>
<rect x="151.293" y="27.1552" width="3.87931" height="135.776" fill="#272727"/>
<rect x="159.052" y="23.2759" width="3.87931" height="135.776" fill="#272727"/>
<rect x="155.172" y="27.1552" width="3.87931" height="135.776" fill="#272727"/>
<rect x="162.931" y="23.2759" width="3.87931" height="135.776" fill="#272727"/>
<rect x="166.81" y="31.0345" width="3.87931" height="124.138" fill="#272727"/>
<rect x="170.69" y="31.0345" width="3.87931" height="124.138" fill="#272727"/>
<rect x="174.569" y="27.1552" width="3.87931" height="124.138" fill="#272727"/>
<rect x="178.448" y="15.5172" width="3.87931" height="135.776" fill="#272727"/>
<rect x="182.328" y="11.6379" width="3.87931" height="135.776" fill="#272727"/>
<rect x="186.207" y="11.6379" width="3.87931" height="135.776" fill="#272727"/>
<rect x="190.086" y="7.75862" width="3.87931" height="135.776" fill="#272727"/>
<rect x="193.966" y="7.75862" width="3.87931" height="135.776" fill="#272727"/>
<path d="M38.9656 76.5519C38.6208 76.8967 37.9311 77.2415 37.2414 77.5864C36.5518 77.5864 35.5173 77.5864 34.4828 77.5864C33.4484 77.5864 32.4139 77.5863 31.3794 77.2415C30.3449 76.8967 29.6553 76.2071 28.9656 75.1726L24.8277 66.207C24.4828 65.5174 24.138 64.8277 23.7932 63.7933C23.4484 63.1036 23.1035 62.0691 22.7587 61.0346H22.4139C22.4139 62.7588 22.4139 64.4829 22.4139 65.8622C22.4139 67.5864 22.7587 68.9657 22.7587 70.6898V77.2415C22.4139 77.2415 21.7242 77.2415 21.0346 77.5864C20.6897 77.5864 20.0001 77.5864 19.3104 77.5864C18.6208 77.5864 17.9311 77.5864 17.5863 77.5864C17.2415 77.2415 16.5518 77.2415 16.5518 76.8967C16.207 76.5519 15.8622 76.207 15.5173 75.8622C15.5173 75.5174 15.5173 74.8277 15.5173 74.1381V52.7588C15.8622 52.4139 16.5518 51.7243 17.2415 51.3795C17.9311 51.3795 18.9656 51.0346 20.0001 51.0346C21.0346 51.0346 22.069 51.3795 22.7587 51.7243C23.7932 52.0691 24.4828 52.7588 25.1725 53.7933L29.3104 62.414C30.0001 63.4484 30.3449 64.1381 30.6897 64.8277C31.0346 65.8622 31.3794 66.5519 31.7242 67.5864H32.069C31.7242 66.207 31.7242 64.4829 31.7242 63.1036C31.7242 61.3795 31.7242 60.0001 31.7242 58.276V51.3795C32.069 51.3795 32.4139 51.3795 33.1035 51.3795C33.7932 51.0346 34.4828 51.0346 35.1725 51.0346C36.207 51.0346 37.2414 51.3795 37.9311 51.7243C38.6208 52.0691 38.9656 53.1036 38.9656 54.4829V76.5519V76.5519Z" fill="white"/>
<path d="M60.6898 51.3792C61.0346 51.724 61.3795 52.0688 61.3795 52.7585C61.3795 53.4481 61.7243 53.793 61.7243 54.4826C61.7243 55.5171 61.3795 56.2068 61.0346 56.8964C60.345 57.2412 59.6553 57.5861 58.9657 57.5861H50.0002V62.4137H59.3105C59.6553 62.7585 60.0002 63.1033 60.0002 63.4482C60.0002 64.1378 60.345 64.4826 60.345 65.1723C60.345 66.2068 60.0002 66.8964 59.6553 67.5861C58.9657 67.9309 58.276 68.2757 57.5864 68.2757H50.0002V77.2412C49.6553 77.2412 49.3105 77.2412 48.6208 77.5861C47.9312 77.5861 47.2415 77.5861 46.5519 77.5861C45.8622 77.5861 45.5174 77.5861 44.8278 77.5861C44.4829 77.2412 44.1381 77.2412 43.7933 76.8964C43.4484 76.5516 43.1036 76.2068 42.7588 75.8619C42.7588 75.5171 42.7588 74.8274 42.7588 74.1378V55.5171C42.7588 54.1378 43.1036 53.4481 43.7933 52.4137C44.4829 51.724 45.5174 51.3792 46.5519 51.3792H60.6898V51.3792Z" fill="white"/>
<path d="M64.8277 57.5861C64.4829 57.2413 64.4829 56.8964 64.138 56.2068C64.138 55.5171 63.7932 55.1723 63.7932 54.4826C63.7932 53.4482 64.138 52.7585 64.8277 52.0689C65.1725 51.724 65.8622 51.3792 66.5518 51.3792H85.1725C85.5173 51.724 85.5174 52.0688 85.8622 52.7585C85.8622 53.1033 86.207 53.793 86.207 54.4826C86.207 55.5171 85.8622 56.2068 85.1725 56.8964C84.8277 57.2412 84.138 57.5861 83.4484 57.5861H78.6208V77.2412C78.276 77.2412 77.9311 77.2412 77.2415 77.5861C76.5518 77.5861 75.8622 77.5861 75.1725 77.5861C74.4829 77.5861 73.7932 77.5861 73.4484 77.5861C73.1035 77.2412 72.4139 77.2412 72.0691 76.8964C71.7242 76.5516 71.7243 76.2068 71.3794 75.8619C71.3794 75.5171 71.0346 74.8274 71.0346 74.1378V57.5861H64.8277V57.5861Z" fill="white"/>
<path d="M93.1034 51.3794L95.5172 55.5173V51.3794H96.8965V57.5863H95.5172L93.1034 53.4483V57.5863H91.7241V51.3794H93.1034Z" fill="white"/>
<path d="M97.5862 51.3792H98.9655L100.345 53.793L102.069 51.3792H103.448L101.034 55.1723V57.5861H99.6551V55.1723L97.5862 51.3792Z" fill="white"/>
<path d="M107.931 53.1033C107.931 52.7585 107.931 52.7585 107.586 52.7585L107.241 52.4137H106.896C106.552 52.4137 106.207 52.4137 105.862 52.4137C105.862 52.7585 105.517 52.7585 105.517 53.1033C105.172 53.1033 105.172 53.4482 105.172 53.793C105.172 54.1378 105.172 54.1378 105.172 54.4826C105.172 54.8275 105.172 55.1723 105.172 55.1723C105.172 55.5171 105.172 55.862 105.517 55.862C105.517 56.2068 105.862 56.2068 105.862 56.5516C106.207 56.5516 106.552 56.5516 106.896 56.5516C107.241 56.5516 107.586 56.5516 107.586 56.2068C107.931 55.862 108.276 55.5171 108.276 55.1723H109.655C109.31 55.5171 109.31 55.862 109.31 56.2068C108.965 56.5516 108.965 56.8964 108.621 57.2413C108.276 57.2413 108.276 57.5861 107.931 57.5861C107.586 57.5861 107.241 57.5861 106.896 57.5861C106.207 57.5861 105.862 57.5861 105.517 57.5861C105.172 57.2413 104.827 57.2413 104.483 56.8964C104.138 56.5516 104.138 56.2068 103.793 55.862C103.793 55.5171 103.793 54.8275 103.793 54.4826C103.793 54.1378 103.793 53.793 103.793 53.1033C104.138 52.7585 104.138 52.4137 104.483 52.0689C104.827 51.724 105.172 51.724 105.517 51.3792C105.862 51.3792 106.207 51.3792 106.896 51.3792C107.241 51.3792 107.586 51.3792 107.586 51.3792C107.931 51.3792 108.276 51.724 108.621 51.724C108.965 52.0689 108.965 52.0688 109.31 52.4137C109.31 52.7585 109.31 53.1033 109.31 53.4482H108.276L107.931 53.1033Z" fill="white"/>
<path d="M110 62.4138H91.0345C89.6552 62.4138 88.2759 61.3793 88.2759 59.6551V49.3103C88.2759 47.5862 89.6552 46.5517 91.0345 46.5517H110C111.724 46.5517 112.759 47.5862 112.759 49.3103V59.6551C112.759 61.3793 111.724 62.4138 110 62.4138ZM91.0345 47.5862C90.3448 47.5862 89.6552 48.2759 89.6552 49.3103V59.6551C89.6552 60.6896 90.3448 61.3793 91.0345 61.3793H110C111.034 61.3793 111.724 60.6896 111.724 59.6551V49.3103C111.724 48.2759 111.034 47.5862 110 47.5862H91.0345Z" fill="white"/>
<path fill-rule="evenodd" clip-rule="evenodd" d="M136.381 138.552C136.224 138.709 136.068 138.395 136.381 138.552C137.402 137.297 138.814 134.001 138.5 132.353C136.852 134.393 134.341 134.629 131.987 134.236L131.438 133.295C130.025 130.784 131.752 127.409 133.557 125.448C128.142 126.939 126.416 129.293 124.533 135.178C121.708 126.075 135.597 119.406 143.051 120.347C139.128 122.309 133.007 127.096 134.106 131.019C136.931 131.411 138.5 129.842 140.383 126.154C142.188 132.981 139.049 137.218 136.381 138.552V138.552Z" fill="white"/>
<path fill-rule="evenodd" clip-rule="evenodd" d="M123.041 155.501C122.806 155.501 122.571 155.58 122.571 155.737C122.571 155.894 122.806 156.051 123.041 156.051C123.277 156.051 123.434 155.894 123.434 155.737C123.434 155.58 123.277 155.501 123.041 155.501ZM134.262 137.689C137.087 140.278 139.206 141.455 140.305 147.968C141.089 152.363 138.735 158.483 131.438 159.032C128.142 159.189 123.277 158.405 121.315 156.208C119.432 154.01 120.53 150.479 121.08 147.89C121.629 145.3 121.55 143.574 121.707 141.455C121.864 139.415 122.178 136.904 124.611 135.884C126.965 134.786 131.438 135.178 134.262 137.689V137.689ZM121.707 154.403C122.021 154.481 122.335 154.403 122.335 154.167C122.414 153.932 122.178 153.775 121.864 153.697C121.472 153.618 121.158 153.697 121.158 153.932C121.08 154.089 121.315 154.324 121.707 154.403V154.403ZM135.439 154.481C135.283 154.638 135.204 154.874 135.283 154.952C135.361 155.031 135.596 155.031 135.753 154.874C135.989 154.717 136.067 154.481 135.989 154.403C135.91 154.246 135.675 154.324 135.439 154.481ZM133.399 153.775C133.085 153.932 132.928 154.246 133.007 154.403C133.085 154.56 133.399 154.638 133.713 154.481C134.027 154.324 134.184 154.01 134.105 153.854C134.027 153.697 133.713 153.618 133.399 153.775ZM134.184 139.415C134.027 139.494 134.105 139.729 134.262 139.886C134.498 140.121 134.655 140.121 134.812 140.043C134.89 139.965 134.812 139.729 134.655 139.572C134.498 139.337 134.262 139.337 134.184 139.415V139.415ZM131.359 139.18C131.202 139.337 131.359 139.651 131.673 139.808C131.908 140.043 132.222 140.043 132.379 139.886C132.458 139.729 132.379 139.415 132.065 139.18C131.751 139.023 131.438 139.023 131.359 139.18ZM132.536 138.003C132.379 138.16 132.536 138.474 132.85 138.631C133.085 138.787 133.399 138.866 133.556 138.631C133.635 138.474 133.556 138.16 133.242 138.003C132.928 137.846 132.615 137.767 132.536 138.003ZM131.83 156.521C131.594 156.6 131.438 156.914 131.516 157.071C131.594 157.228 131.908 157.228 132.144 157.071C132.458 156.992 132.615 156.678 132.536 156.521C132.458 156.365 132.144 156.365 131.83 156.521ZM133.792 155.344C133.478 155.501 133.242 155.815 133.399 155.972C133.478 156.208 133.792 156.208 134.105 156.051C134.419 155.894 134.576 155.58 134.498 155.423C134.419 155.266 134.105 155.187 133.792 155.344ZM125.317 148.282C126.808 148.832 128.377 148.518 128.848 147.576C128.927 147.419 128.927 147.184 128.927 146.948L123.277 146.399C123.434 147.105 124.218 147.89 125.317 148.282ZM124.454 144.594C124.925 144.516 125.239 143.81 125.082 143.025C125.003 142.24 124.454 141.612 123.983 141.691C123.512 141.769 123.277 142.476 123.355 143.26C123.512 144.045 123.983 144.673 124.454 144.594ZM127.671 143.653C127.828 144.437 128.299 145.065 128.77 144.987C129.24 144.908 129.554 144.202 129.397 143.417C129.319 142.632 128.77 142.005 128.299 142.083C127.828 142.162 127.593 142.868 127.671 143.653Z" fill="white"/>
<rect x="178.448" y="155.172" width="3.87931" height="27.1552" transform="rotate(-180 178.448 155.172)" fill="#333333"/>
<rect x="174.569" y="159.052" width="3.87931" height="27.1552" transform="rotate(-180 174.569 159.052)" fill="#333333"/>
<rect x="170.69" y="155.172" width="3.87931" height="23.2759" transform="rotate(-180 170.69 155.172)" fill="#333333"/>
<rect x="170.69" y="159.052" width="3.87931" height="3.87931" transform="rotate(-180 170.69 159.052)" fill="#333333"/>
<rect x="166.81" y="19.3965" width="3.87931" height="23.2759" fill="#333333"/>
<rect x="170.69" y="15.5172" width="3.87931" height="23.2759" fill="#333333"/>
<rect x="174.569" y="15.5172" width="3.87931" height="23.2759" fill="#333333"/>
</svg>
